<svg width="295" height="350" fill="none" xmlns="http://www.w3.org/2000/svg"><g opacity=".03" fill="#DADADA"><path fill-rule="evenodd" clip-rule="evenodd" d="M147.077 0c33.415 0 65.859 11.275 91.44 31.75v-.001c33.415 26.73 53.069 64.735 55.447 106.99 2.276 41.718-13.326 82.534-42.791 111.975l-97.671 96.319c-3.784 3.747-10.346 3.713-14.129-.034l-96.292-96.216C13.551 221.275-2.086 180.426.224 138.74 2.568 96.486 22.255 58.48 55.637 31.75 81.184 11.274 113.662 0 147.077 0zM81.452 146.874c0 36.166 29.43 65.574 65.625 65.574 36.193 0 65.658-29.407 65.624-65.574 0-36.165-29.43-65.573-65.624-65.573-36.194 0-65.625 29.407-65.625 65.573z"/><path d="M147.077 114.913c-17.645 0-31.976 14.319-31.976 31.95 0 17.632 14.331 31.951 31.976 31.951s31.975-14.319 31.975-31.951c0-17.631-14.33-31.95-31.975-31.95z"/></g></svg>