<svg width="1001" height="496" viewBox="0 0 1001 496" fill="none" xmlns="http://www.w3.org/2000/svg">
<g opacity="0.29827">
<path d="M1008.08 163.448L443.182 -356.858V-747.19L28.1096 -770C24.9043 -762.456 4.36709 -740.714 7.57176 -728.596C11.43 -714.102 30.8387 -718.735 36.4776 -709.409C43.0661 -698.42 31.7291 -653.749 28.3457 -640.86C21.8759 -616.445 7.09676 -596.665 2.82235 -572.25C-4.35982 -531.263 10.1824 -534.53 37.7242 -508.927C84.141 -465.742 46.9244 -420.952 58.6176 -370.223C68.1146 -328.878 109.605 -307.554 124.8 -266.211C136.553 -234.37 152.697 -226.233 177.746 -202.947C177.153 -217.084 164.51 -258.785 188.253 -255.102C211.817 -251.478 202.736 -216.669 207.247 -202.115C211.045 -189.997 237.933 -165.761 215.616 -154.593C208.196 -150.91 187.066 -165.582 178.577 -169.503C184.572 -150.791 180.774 -131.367 190.271 -113.487C201.608 -92.162 213.835 -100.359 228.853 -88.7754C244.344 -76.8355 242.683 -63.1137 235.797 -45.0554C228.615 -26.2247 221.196 -29.1352 232.592 -6.44342C240.843 9.95119 254.85 30.7421 266.9 43.2164C273.904 50.4634 281.502 52.1267 288.506 61.3932C294.323 69.1155 292.067 79.2142 299.012 86.1638C310.883 98.1037 331.006 98.282 340.384 113.904C350.831 131.309 338.96 144.437 369.706 142.833C371.309 177.643 377.897 209.185 377.541 243.994C394.695 250.825 422.414 242.687 440.399 239.063C458.266 263.18 481.355 246.429 501.774 259.558C510.678 265.26 508.837 279.517 514.239 284.506C525.339 294.723 533.529 288.308 547.301 291.872C557.51 294.486 565.404 301.97 575.138 304.703C584.338 307.257 599.475 301.258 606.301 309.396C614.492 319.138 600.78 336.958 613.127 344.799C623.395 351.333 638.115 335.77 648.088 338.027C659.721 340.7 693.079 371.174 701.271 381.212C710.59 392.677 719.969 414.062 725.25 428.793C733.501 451.841 732.373 463.127 749.408 479.998C760.27 490.75 749.942 491.522 767.63 494.67C779.204 496.749 794.518 488.374 806.212 487.067C830.549 484.394 855.122 489.027 879.102 484.453C901.421 480.176 922.729 473.166 945.64 469.899C965.465 467.048 1000.37 469.246 1017.94 459.801C1036.99 449.643 1038.71 426.654 1011.17 430.932C1008.97 416.26 1018.77 396.003 1007.85 385.847C1023.04 365.056 1028.56 350.384 1030.93 324.959C1032 313.792 1032.48 301.436 1038 292.05C1043.4 282.783 1058.59 277.259 1061.56 269.299C1066.13 256.943 1058.83 251.419 1053.25 244.528C1049.69 240.073 1039.54 242.212 1036.63 238.291C1031.23 231.103 1036.57 223.678 1033.6 216.431C1024.94 195.462 1014.61 187.205 1008.08 163.444C1008.26 167.424 1008.44 171.463 1008.2 175.384" stroke="white" stroke-width="2" stroke-linecap="round" stroke-linejoin="round"/>
</g>
<path d="M730.727 83.1364C700.585 102.799 711.667 127.832 712.299 157.705C712.486 166.557 705.842 175.36 696.862 176.532C677.553 179.053 652.597 130.974 642.904 147.493C632.893 164.553 647.785 212.616 648.048 215.27C650.354 238.578 627.839 273.959 606.138 285.525C590.698 293.754 560.877 261.656 553.86 248.736C507.909 164.127 536.14 193.264 466.065 120.27C460.701 114.682 454.79 109.172 447.377 106.506C439.741 103.76 432.565 112.709 430.544 119.104C423.848 140.296 430.547 191.36 405.385 205.52C397.664 209.865 388.678 209.169 380.887 213.328C374.785 216.586 370.142 222.578 364.77 227.203" stroke="white" stroke-width="2"/>
<path fill-rule="evenodd" clip-rule="evenodd" d="M364.5 231C368.09 231 371 228.09 371 224.5C371 220.91 368.09 218 364.5 218C360.91 218 358 220.91 358 224.5C358 228.09 360.91 231 364.5 231Z" fill="#4AF6CD"/>
<path fill-rule="evenodd" clip-rule="evenodd" d="M661 363C662.657 363 664 361.657 664 360C664 358.343 662.657 357 661 357C659.343 357 658 358.343 658 360C658 361.657 659.343 363 661 363Z" fill="#4AF6CD"/>
<path fill-rule="evenodd" clip-rule="evenodd" d="M574 323C575.657 323 577 321.657 577 320C577 318.343 575.657 317 574 317C572.343 317 571 318.343 571 320C571 321.657 572.343 323 574 323Z" fill="#4AF6CD"/>
<path fill-rule="evenodd" clip-rule="evenodd" d="M725 471C726.657 471 728 469.657 728 468C728 466.343 726.657 465 725 465C723.343 465 722 466.343 722 468C722 469.657 723.343 471 725 471Z" fill="#4AF6CD"/>
<path fill-rule="evenodd" clip-rule="evenodd" d="M365 228C366.657 228 368 226.657 368 225C368 223.343 366.657 222 365 222C363.343 222 362 223.343 362 225C362 226.657 363.343 228 365 228Z" fill="#4AF6CD"/>
<path fill-rule="evenodd" clip-rule="evenodd" d="M729.5 91C733.09 91 736 88.0899 736 84.5C736 80.9101 733.09 78 729.5 78C725.91 78 723 80.9101 723 84.5C723 88.0899 725.91 91 729.5 91Z" fill="#4AF6CD"/>
<path d="M184.359 230H182.327L177.847 220.64C177.911 221.376 177.959 222.059 177.991 222.688C178.034 223.307 178.055 224.059 178.055 224.944V230H176.631V218.976H178.615L183.143 228.352C183.111 228.075 183.069 227.589 183.015 226.896C182.962 226.203 182.935 225.568 182.935 224.992V218.976H184.359V230ZM190.641 221.376C191.825 221.376 192.742 221.771 193.393 222.56C194.054 223.349 194.385 224.421 194.385 225.776C194.385 226.651 194.236 227.424 193.937 228.096C193.638 228.757 193.206 229.275 192.641 229.648C192.076 230.011 191.404 230.192 190.625 230.192C189.441 230.192 188.518 229.797 187.857 229.008C187.196 228.219 186.865 227.147 186.865 225.792C186.865 224.917 187.014 224.149 187.313 223.488C187.612 222.816 188.044 222.299 188.609 221.936C189.174 221.563 189.852 221.376 190.641 221.376ZM190.641 222.56C189.18 222.56 188.449 223.637 188.449 225.792C188.449 227.936 189.174 229.008 190.625 229.008C192.076 229.008 192.801 227.931 192.801 225.776C192.801 223.632 192.081 222.56 190.641 222.56ZM200.481 221.376C200.78 221.376 201.057 221.408 201.313 221.472L201.041 222.912C200.785 222.848 200.54 222.816 200.305 222.816C199.782 222.816 199.361 223.008 199.041 223.392C198.721 223.776 198.47 224.373 198.289 225.184V230H196.817V221.568H198.081L198.225 223.28C198.449 222.651 198.753 222.176 199.137 221.856C199.521 221.536 199.969 221.376 200.481 221.376ZM207.245 229.616C206.69 230 206.061 230.192 205.357 230.192C204.642 230.192 204.082 229.989 203.677 229.584C203.282 229.168 203.085 228.571 203.085 227.792V222.704H201.613V221.568H203.085V219.664L204.557 219.488V221.568H206.557L206.397 222.704H204.557V227.728C204.557 228.165 204.631 228.485 204.781 228.688C204.941 228.88 205.202 228.976 205.565 228.976C205.895 228.976 206.269 228.864 206.685 228.64L207.245 229.616ZM212.738 221.376C213.506 221.376 214.103 221.605 214.53 222.064C214.967 222.523 215.186 223.152 215.186 223.952V230H213.714V224.16C213.714 223.563 213.597 223.141 213.362 222.896C213.138 222.651 212.807 222.528 212.37 222.528C211.933 222.528 211.543 222.656 211.202 222.912C210.861 223.168 210.541 223.531 210.242 224V230H208.77V218.192L210.242 218.032V222.736C210.903 221.829 211.735 221.376 212.738 221.376ZM225.179 218.784C225.915 218.784 226.545 218.891 227.067 219.104C227.59 219.307 228.097 219.627 228.587 220.064L227.755 220.992C227.339 220.661 226.929 220.421 226.523 220.272C226.129 220.112 225.702 220.032 225.243 220.032C224.667 220.032 224.193 220.165 223.819 220.432C223.446 220.699 223.259 221.088 223.259 221.6C223.259 221.92 223.323 222.192 223.451 222.416C223.579 222.629 223.814 222.827 224.155 223.008C224.507 223.189 225.014 223.381 225.675 223.584C226.369 223.797 226.945 224.027 227.403 224.272C227.862 224.517 228.23 224.859 228.507 225.296C228.795 225.723 228.939 226.267 228.939 226.928C228.939 227.568 228.779 228.133 228.459 228.624C228.15 229.115 227.697 229.499 227.099 229.776C226.513 230.053 225.814 230.192 225.003 230.192C223.478 230.192 222.23 229.717 221.259 228.768L222.091 227.84C222.539 228.203 222.993 228.48 223.451 228.672C223.91 228.853 224.422 228.944 224.987 228.944C225.67 228.944 226.235 228.779 226.683 228.448C227.131 228.107 227.355 227.616 227.355 226.976C227.355 226.613 227.286 226.315 227.147 226.08C227.009 225.835 226.769 225.616 226.427 225.424C226.097 225.232 225.611 225.04 224.971 224.848C223.841 224.507 223.014 224.096 222.491 223.616C221.969 223.136 221.707 222.485 221.707 221.664C221.707 221.109 221.851 220.613 222.139 220.176C222.438 219.739 222.849 219.397 223.371 219.152C223.905 218.907 224.507 218.784 225.179 218.784ZM235.066 221.376C235.834 221.376 236.431 221.605 236.858 222.064C237.295 222.523 237.514 223.152 237.514 223.952V230H236.042V224.16C236.042 223.563 235.925 223.141 235.69 222.896C235.466 222.651 235.135 222.528 234.698 222.528C234.261 222.528 233.871 222.656 233.53 222.912C233.189 223.168 232.869 223.531 232.57 224V230H231.098V218.192L232.57 218.032V222.736C233.231 221.829 234.063 221.376 235.066 221.376ZM243.641 221.376C244.825 221.376 245.742 221.771 246.393 222.56C247.054 223.349 247.385 224.421 247.385 225.776C247.385 226.651 247.236 227.424 246.937 228.096C246.638 228.757 246.206 229.275 245.641 229.648C245.076 230.011 244.404 230.192 243.625 230.192C242.441 230.192 241.518 229.797 240.857 229.008C240.196 228.219 239.865 227.147 239.865 225.792C239.865 224.917 240.014 224.149 240.313 223.488C240.612 222.816 241.044 222.299 241.609 221.936C242.174 221.563 242.852 221.376 243.641 221.376ZM243.641 222.56C242.18 222.56 241.449 223.637 241.449 225.792C241.449 227.936 242.174 229.008 243.625 229.008C245.076 229.008 245.801 227.931 245.801 225.776C245.801 223.632 245.081 222.56 243.641 222.56ZM253.481 221.376C253.78 221.376 254.057 221.408 254.313 221.472L254.041 222.912C253.785 222.848 253.54 222.816 253.305 222.816C252.782 222.816 252.361 223.008 252.041 223.392C251.721 223.776 251.47 224.373 251.289 225.184V230H249.817V221.568H251.081L251.225 223.28C251.449 222.651 251.753 222.176 252.137 221.856C252.521 221.536 252.969 221.376 253.481 221.376ZM261.872 225.536C261.872 225.781 261.862 226.032 261.84 226.288H256.464C256.528 227.216 256.763 227.899 257.168 228.336C257.574 228.773 258.096 228.992 258.736 228.992C259.142 228.992 259.515 228.933 259.856 228.816C260.198 228.699 260.555 228.512 260.928 228.256L261.568 229.136C260.672 229.84 259.691 230.192 258.624 230.192C257.451 230.192 256.534 229.808 255.872 229.04C255.222 228.272 254.896 227.216 254.896 225.872C254.896 224.997 255.035 224.224 255.312 223.552C255.6 222.869 256.006 222.336 256.528 221.952C257.062 221.568 257.686 221.376 258.4 221.376C259.52 221.376 260.379 221.744 260.976 222.48C261.574 223.216 261.872 224.235 261.872 225.536ZM260.416 225.104C260.416 224.272 260.251 223.637 259.92 223.2C259.59 222.763 259.094 222.544 258.432 222.544C257.227 222.544 256.571 223.429 256.464 225.2H260.416V225.104ZM270.41 217.184V231.568H270.058V217.184H270.41ZM289.237 230H287.765L287.381 225.024C287.221 223.072 287.131 221.573 287.109 220.528L284.725 228.752H283.301L280.789 220.512C280.789 221.845 280.72 223.387 280.581 225.136L280.213 230H278.773L279.685 218.976H281.733L284.053 226.992L286.261 218.976H288.325L289.237 230ZM297.434 228.032C297.434 228.373 297.493 228.629 297.61 228.8C297.728 228.96 297.904 229.083 298.138 229.168L297.802 230.192C297.365 230.139 297.013 230.016 296.746 229.824C296.48 229.632 296.282 229.333 296.154 228.928C295.589 229.771 294.752 230.192 293.642 230.192C292.81 230.192 292.154 229.957 291.674 229.488C291.194 229.019 290.954 228.405 290.954 227.648C290.954 226.752 291.274 226.064 291.914 225.584C292.565 225.104 293.482 224.864 294.666 224.864H295.962V224.24C295.962 223.643 295.818 223.216 295.53 222.96C295.242 222.704 294.8 222.576 294.202 222.576C293.584 222.576 292.826 222.725 291.93 223.024L291.562 221.952C292.608 221.568 293.578 221.376 294.474 221.376C295.466 221.376 296.208 221.621 296.698 222.112C297.189 222.592 297.434 223.28 297.434 224.176V228.032ZM293.978 229.088C294.821 229.088 295.482 228.651 295.962 227.776V225.84H294.858C293.301 225.84 292.522 226.416 292.522 227.568C292.522 228.069 292.645 228.448 292.89 228.704C293.136 228.96 293.498 229.088 293.978 229.088ZM301.981 230.192C301.437 230.192 301.005 230.032 300.685 229.712C300.376 229.381 300.221 228.923 300.221 228.336V218.176L301.693 218V228.304C301.693 228.539 301.731 228.709 301.805 228.816C301.891 228.923 302.029 228.976 302.221 228.976C302.424 228.976 302.605 228.944 302.765 228.88L303.149 229.904C302.797 230.096 302.408 230.192 301.981 230.192ZM306.461 221.568V230H304.989V221.568H306.461ZM305.709 217.52C306.018 217.52 306.269 217.616 306.461 217.808C306.653 218 306.749 218.24 306.749 218.528C306.749 218.816 306.653 219.056 306.461 219.248C306.269 219.429 306.018 219.52 305.709 219.52C305.41 219.52 305.165 219.429 304.973 219.248C304.781 219.056 304.685 218.816 304.685 218.528C304.685 218.24 304.781 218 304.973 217.808C305.165 217.616 305.41 217.52 305.709 217.52ZM313.36 221.376C314.32 221.376 315.083 221.765 315.648 222.544C316.214 223.312 316.496 224.389 316.496 225.776C316.496 226.651 316.363 227.424 316.096 228.096C315.83 228.757 315.446 229.275 314.944 229.648C314.443 230.011 313.856 230.192 313.184 230.192C312.299 230.192 311.552 229.819 310.944 229.072L310.8 230H309.504V218.176L310.976 218V222.624C311.584 221.792 312.379 221.376 313.36 221.376ZM312.832 229.024C313.483 229.024 313.99 228.763 314.352 228.24C314.726 227.707 314.912 226.885 314.912 225.776C314.912 224.635 314.742 223.813 314.4 223.312C314.059 222.8 313.574 222.544 312.944 222.544C312.198 222.544 311.542 222.981 310.976 223.856V227.888C311.2 228.24 311.472 228.517 311.792 228.72C312.123 228.923 312.47 229.024 312.832 229.024ZM325.276 230H324.012L323.9 228.688C323.58 229.211 323.212 229.595 322.796 229.84C322.38 230.075 321.874 230.192 321.276 230.192C320.54 230.192 319.964 229.968 319.548 229.52C319.132 229.072 318.924 228.437 318.924 227.616V221.568H320.396V227.456C320.396 228.032 320.498 228.443 320.7 228.688C320.903 228.923 321.234 229.04 321.692 229.04C322.514 229.04 323.218 228.555 323.804 227.584V221.568H325.276V230ZM328.701 227.968C329.021 227.968 329.288 228.075 329.501 228.288C329.714 228.501 329.821 228.763 329.821 229.072C329.821 229.403 329.725 229.781 329.533 230.208L328.461 232.656H327.405L328.045 230C327.906 229.893 327.794 229.76 327.709 229.6C327.634 229.44 327.597 229.264 327.597 229.072C327.597 228.763 327.704 228.501 327.917 228.288C328.13 228.075 328.392 227.968 328.701 227.968ZM340.331 218.784C340.992 218.784 341.547 218.869 341.995 219.04C342.454 219.211 342.918 219.488 343.387 219.872L342.555 220.848C341.883 220.304 341.174 220.032 340.427 220.032C339.51 220.032 338.768 220.384 338.203 221.088C337.648 221.792 337.371 222.923 337.371 224.48C337.371 225.995 337.648 227.115 338.203 227.84C338.758 228.555 339.494 228.912 340.411 228.912C340.88 228.912 341.291 228.832 341.643 228.672C341.995 228.512 342.368 228.288 342.763 228L343.515 228.96C343.174 229.312 342.736 229.605 342.203 229.84C341.67 230.075 341.056 230.192 340.363 230.192C339.467 230.192 338.667 229.973 337.963 229.536C337.27 229.088 336.726 228.437 336.331 227.584C335.947 226.72 335.755 225.685 335.755 224.48C335.755 223.275 335.958 222.245 336.363 221.392C336.768 220.528 337.318 219.877 338.011 219.44C338.704 219.003 339.478 218.784 340.331 218.784ZM351.3 230L350.468 227.232H346.292L345.46 230H343.924L347.46 218.976H349.38L352.9 230H351.3ZM346.66 226H350.1L348.388 220.24L346.66 226Z" fill="white"/>
<path d="M598.378 75.784C599.039 75.784 599.594 75.8693 600.042 76.04C600.501 76.2107 600.965 76.488 601.434 76.872L600.602 77.848C599.93 77.304 599.221 77.032 598.474 77.032C597.557 77.032 596.815 77.384 596.25 78.088C595.695 78.792 595.418 79.9227 595.418 81.48C595.418 82.9947 595.695 84.1147 596.25 84.84C596.805 85.5547 597.541 85.912 598.458 85.912C598.927 85.912 599.338 85.832 599.69 85.672C600.042 85.512 600.415 85.288 600.81 85L601.562 85.96C601.221 86.312 600.783 86.6053 600.25 86.84C599.717 87.0747 599.103 87.192 598.41 87.192C597.514 87.192 596.714 86.9733 596.01 86.536C595.317 86.088 594.773 85.4373 594.378 84.584C593.994 83.72 593.802 82.6853 593.802 81.48C593.802 80.2747 594.005 79.2453 594.41 78.392C594.815 77.528 595.365 76.8773 596.058 76.44C596.751 76.0027 597.525 75.784 598.378 75.784ZM609.401 87H608.137L608.025 85.688C607.705 86.2107 607.337 86.5947 606.921 86.84C606.505 87.0747 605.999 87.192 605.401 87.192C604.665 87.192 604.089 86.968 603.673 86.52C603.257 86.072 603.049 85.4373 603.049 84.616V78.568H604.521V84.456C604.521 85.032 604.623 85.4427 604.825 85.688C605.028 85.9227 605.359 86.04 605.817 86.04C606.639 86.04 607.343 85.5547 607.929 84.584V78.568H609.401V87ZM616.106 78.376C616.405 78.376 616.682 78.408 616.938 78.472L616.666 79.912C616.41 79.848 616.165 79.816 615.93 79.816C615.407 79.816 614.986 80.008 614.666 80.392C614.346 80.776 614.095 81.3733 613.914 82.184V87H612.442V78.568H613.706L613.85 80.28C614.074 79.6507 614.378 79.176 614.762 78.856C615.146 78.536 615.594 78.376 616.106 78.376ZM622.278 78.376C622.576 78.376 622.854 78.408 623.11 78.472L622.838 79.912C622.582 79.848 622.336 79.816 622.102 79.816C621.579 79.816 621.158 80.008 620.838 80.392C620.518 80.776 620.267 81.3733 620.086 82.184V87H618.614V78.568H619.878L620.022 80.28C620.246 79.6507 620.55 79.176 620.934 78.856C621.318 78.536 621.766 78.376 622.278 78.376ZM630.669 82.536C630.669 82.7813 630.659 83.032 630.637 83.288H625.261C625.325 84.216 625.56 84.8987 625.965 85.336C626.371 85.7733 626.893 85.992 627.533 85.992C627.939 85.992 628.312 85.9333 628.653 85.816C628.995 85.6987 629.352 85.512 629.725 85.256L630.365 86.136C629.469 86.84 628.488 87.192 627.421 87.192C626.248 87.192 625.331 86.808 624.669 86.04C624.019 85.272 623.693 84.216 623.693 82.872C623.693 81.9973 623.832 81.224 624.109 80.552C624.397 79.8693 624.803 79.336 625.325 78.952C625.859 78.568 626.483 78.376 627.197 78.376C628.317 78.376 629.176 78.744 629.773 79.48C630.371 80.216 630.669 81.2347 630.669 82.536ZM629.213 82.104C629.213 81.272 629.048 80.6373 628.717 80.2C628.387 79.7627 627.891 79.544 627.229 79.544C626.024 79.544 625.368 80.4293 625.261 82.2H629.213V82.104ZM636.988 78.376C637.756 78.376 638.353 78.6053 638.78 79.064C639.217 79.5227 639.436 80.152 639.436 80.952V87H637.964V81.16C637.964 80.5627 637.852 80.1413 637.628 79.896C637.404 79.6507 637.073 79.528 636.636 79.528C636.188 79.528 635.793 79.656 635.452 79.912C635.111 80.168 634.791 80.536 634.492 81.016V87H633.02V78.568H634.284L634.412 79.816C634.711 79.368 635.079 79.016 635.516 78.76C635.964 78.504 636.455 78.376 636.988 78.376ZM646.651 86.616C646.096 87 645.467 87.192 644.763 87.192C644.048 87.192 643.488 86.9893 643.083 86.584C642.688 86.168 642.491 85.5707 642.491 84.792V79.704H641.019V78.568H642.491V76.664L643.963 76.488V78.568H645.963L645.803 79.704H643.963V84.728C643.963 85.1653 644.038 85.4853 644.187 85.688C644.347 85.88 644.608 85.976 644.971 85.976C645.302 85.976 645.675 85.864 646.091 85.64L646.651 86.616ZM654.011 75.976V85.672H658.539L658.363 87H652.491V75.976H654.011ZM663.141 78.376C664.325 78.376 665.242 78.7707 665.893 79.56C666.554 80.3493 666.885 81.4213 666.885 82.776C666.885 83.6507 666.736 84.424 666.437 85.096C666.138 85.7573 665.706 86.2747 665.141 86.648C664.576 87.0107 663.904 87.192 663.125 87.192C661.941 87.192 661.018 86.7973 660.357 86.008C659.696 85.2187 659.365 84.1467 659.365 82.792C659.365 81.9173 659.514 81.1493 659.813 80.488C660.112 79.816 660.544 79.2987 661.109 78.936C661.674 78.5627 662.352 78.376 663.141 78.376ZM663.141 79.56C661.68 79.56 660.949 80.6373 660.949 82.792C660.949 84.936 661.674 86.008 663.125 86.008C664.576 86.008 665.301 84.9307 665.301 82.776C665.301 80.632 664.581 79.56 663.141 79.56ZM672.389 78.376C672.89 78.376 673.349 78.4507 673.765 78.6C674.181 78.7387 674.581 78.968 674.965 79.288L674.261 80.216C673.962 80.0027 673.669 79.848 673.381 79.752C673.104 79.6453 672.794 79.592 672.453 79.592C671.77 79.592 671.237 79.864 670.853 80.408C670.48 80.952 670.293 81.7573 670.293 82.824C670.293 83.8907 670.48 84.68 670.853 85.192C671.226 85.6933 671.76 85.944 672.453 85.944C672.784 85.944 673.088 85.896 673.365 85.8C673.642 85.6933 673.952 85.528 674.293 85.304L674.965 86.264C674.197 86.8827 673.338 87.192 672.389 87.192C671.248 87.192 670.346 86.808 669.685 86.04C669.034 85.272 668.709 84.2107 668.709 82.856C668.709 81.96 668.858 81.176 669.157 80.504C669.456 79.832 669.877 79.3093 670.421 78.936C670.976 78.5627 671.632 78.376 672.389 78.376ZM682.481 85.032C682.481 85.3733 682.54 85.6293 682.657 85.8C682.775 85.96 682.951 86.0827 683.185 86.168L682.849 87.192C682.412 87.1387 682.06 87.016 681.793 86.824C681.527 86.632 681.329 86.3333 681.201 85.928C680.636 86.7707 679.799 87.192 678.689 87.192C677.857 87.192 677.201 86.9573 676.721 86.488C676.241 86.0187 676.001 85.4053 676.001 84.648C676.001 83.752 676.321 83.064 676.961 82.584C677.612 82.104 678.529 81.864 679.713 81.864H681.009V81.24C681.009 80.6427 680.865 80.216 680.577 79.96C680.289 79.704 679.847 79.576 679.249 79.576C678.631 79.576 677.873 79.7253 676.977 80.024L676.609 78.952C677.655 78.568 678.625 78.376 679.521 78.376C680.513 78.376 681.255 78.6213 681.745 79.112C682.236 79.592 682.481 80.28 682.481 81.176V85.032ZM679.025 86.088C679.868 86.088 680.529 85.6507 681.009 84.776V82.84H679.905C678.348 82.84 677.569 83.416 677.569 84.568C677.569 85.0693 677.692 85.448 677.937 85.704C678.183 85.96 678.545 86.088 679.025 86.088ZM689.76 86.616C689.206 87 688.576 87.192 687.872 87.192C687.158 87.192 686.598 86.9893 686.192 86.584C685.798 86.168 685.6 85.5707 685.6 84.792V79.704H684.128V78.568H685.6V76.664L687.072 76.488V78.568H689.072L688.912 79.704H687.072V84.728C687.072 85.1653 687.147 85.4853 687.296 85.688C687.456 85.88 687.718 85.976 688.08 85.976C688.411 85.976 688.784 85.864 689.2 85.64L689.76 86.616ZM692.758 78.568V87H691.286V78.568H692.758ZM692.006 74.52C692.315 74.52 692.566 74.616 692.758 74.808C692.95 75 693.046 75.24 693.046 75.528C693.046 75.816 692.95 76.056 692.758 76.248C692.566 76.4293 692.315 76.52 692.006 76.52C691.707 76.52 691.462 76.4293 691.27 76.248C691.078 76.056 690.982 75.816 690.982 75.528C690.982 75.24 691.078 75 691.27 74.808C691.462 74.616 691.707 74.52 692.006 74.52ZM698.969 78.376C700.153 78.376 701.071 78.7707 701.721 79.56C702.383 80.3493 702.713 81.4213 702.713 82.776C702.713 83.6507 702.564 84.424 702.265 85.096C701.967 85.7573 701.535 86.2747 700.969 86.648C700.404 87.0107 699.732 87.192 698.953 87.192C697.769 87.192 696.847 86.7973 696.185 86.008C695.524 85.2187 695.193 84.1467 695.193 82.792C695.193 81.9173 695.343 81.1493 695.641 80.488C695.94 79.816 696.372 79.2987 696.937 78.936C697.503 78.5627 698.18 78.376 698.969 78.376ZM698.969 79.56C697.508 79.56 696.777 80.6373 696.777 82.792C696.777 84.936 697.503 86.008 698.953 86.008C700.404 86.008 701.129 84.9307 701.129 82.776C701.129 80.632 700.409 79.56 698.969 79.56ZM709.113 78.376C709.881 78.376 710.478 78.6053 710.905 79.064C711.342 79.5227 711.561 80.152 711.561 80.952V87H710.089V81.16C710.089 80.5627 709.977 80.1413 709.753 79.896C709.529 79.6507 709.198 79.528 708.761 79.528C708.313 79.528 707.918 79.656 707.577 79.912C707.236 80.168 706.916 80.536 706.617 81.016V87H705.145V78.568H706.409L706.537 79.816C706.836 79.368 707.204 79.016 707.641 78.76C708.089 78.504 708.58 78.376 709.113 78.376Z" fill="white"/>
</svg>
