<svg width="1001" height="496" viewBox="0 0 1001 496" fill="none" xmlns="http://www.w3.org/2000/svg">
<g opacity="0.29827">
<path d="M1008.08 163.448L443.182 -356.858V-747.19L28.1096 -770C24.9043 -762.456 4.36709 -740.714 7.57176 -728.596C11.43 -714.102 30.8387 -718.735 36.4776 -709.409C43.0661 -698.42 31.7291 -653.749 28.3457 -640.86C21.8759 -616.445 7.09676 -596.665 2.82235 -572.25C-4.35982 -531.263 10.1824 -534.53 37.7242 -508.927C84.141 -465.742 46.9244 -420.952 58.6176 -370.223C68.1146 -328.878 109.605 -307.554 124.8 -266.211C136.553 -234.37 152.697 -226.233 177.746 -202.947C177.153 -217.084 164.51 -258.785 188.253 -255.102C211.817 -251.478 202.736 -216.669 207.247 -202.115C211.045 -189.997 237.933 -165.761 215.616 -154.593C208.196 -150.91 187.066 -165.582 178.577 -169.503C184.572 -150.791 180.774 -131.367 190.271 -113.487C201.608 -92.162 213.835 -100.359 228.853 -88.7754C244.344 -76.8355 242.683 -63.1137 235.797 -45.0554C228.615 -26.2247 221.196 -29.1352 232.592 -6.44342C240.843 9.95119 254.85 30.7421 266.9 43.2164C273.904 50.4634 281.502 52.1267 288.506 61.3932C294.323 69.1155 292.067 79.2142 299.012 86.1638C310.883 98.1037 331.006 98.282 340.384 113.904C350.831 131.309 338.96 144.437 369.706 142.833C371.309 177.643 377.897 209.185 377.541 243.994C394.695 250.825 422.414 242.687 440.399 239.063C458.266 263.18 481.355 246.429 501.774 259.558C510.678 265.26 508.837 279.517 514.239 284.506C525.339 294.723 533.529 288.308 547.301 291.872C557.51 294.486 565.404 301.97 575.138 304.703C584.338 307.257 599.475 301.258 606.301 309.396C614.492 319.138 600.78 336.958 613.127 344.799C623.395 351.333 638.115 335.77 648.088 338.027C659.721 340.7 693.079 371.174 701.271 381.212C710.59 392.677 719.969 414.062 725.25 428.793C733.501 451.841 732.373 463.127 749.408 479.998C760.27 490.75 749.942 491.522 767.63 494.67C779.204 496.749 794.518 488.374 806.212 487.067C830.549 484.394 855.122 489.027 879.102 484.453C901.421 480.176 922.729 473.166 945.64 469.899C965.465 467.048 1000.37 469.246 1017.94 459.801C1036.99 449.643 1038.71 426.654 1011.17 430.932C1008.97 416.26 1018.77 396.003 1007.85 385.847C1023.04 365.056 1028.56 350.384 1030.93 324.959C1032 313.792 1032.48 301.436 1038 292.05C1043.4 282.783 1058.59 277.259 1061.56 269.299C1066.13 256.943 1058.83 251.419 1053.25 244.528C1049.69 240.073 1039.54 242.212 1036.63 238.291C1031.23 231.103 1036.57 223.678 1033.6 216.431C1024.94 195.462 1014.61 187.205 1008.08 163.444C1008.26 167.424 1008.44 171.463 1008.2 175.384" stroke="white" stroke-width="2" stroke-linecap="round" stroke-linejoin="round"/>
</g>
<path d="M728.38 81.7781C721.201 116.717 695.295 116.777 668.648 128.16C660.752 131.533 655.216 141.023 657.223 149.557C661.539 167.909 712.54 171.092 701.21 186.406C689.509 202.223 641.934 208.074 639.496 208.899C618.091 216.151 594.418 250.529 591.542 274.647C589.495 291.808 628.005 305.753 641.816 306.888C732.256 314.315 696.905 300.613 785.248 334.355C792.01 336.938 798.889 340.043 803.761 345.635C808.78 351.395 803.294 361.421 798.321 365.794C781.84 380.287 734.387 394.697 730.388 422.962C729.161 431.635 732.824 439.428 731.785 448.089C730.971 454.874 727.243 461.441 724.972 468.117" stroke="white" stroke-width="2"/>
<path fill-rule="evenodd" clip-rule="evenodd" d="M724.5 474C728.09 474 731 471.09 731 467.5C731 463.91 728.09 461 724.5 461C720.91 461 718 463.91 718 467.5C718 471.09 720.91 474 724.5 474Z" fill="#4AF6CD"/>
<path fill-rule="evenodd" clip-rule="evenodd" d="M661 363C662.657 363 664 361.657 664 360C664 358.343 662.657 357 661 357C659.343 357 658 358.343 658 360C658 361.657 659.343 363 661 363Z" fill="#4AF6CD"/>
<path fill-rule="evenodd" clip-rule="evenodd" d="M574 323C575.657 323 577 321.657 577 320C577 318.343 575.657 317 574 317C572.343 317 571 318.343 571 320C571 321.657 572.343 323 574 323Z" fill="#4AF6CD"/>
<path fill-rule="evenodd" clip-rule="evenodd" d="M725 471C726.657 471 728 469.657 728 468C728 466.343 726.657 465 725 465C723.343 465 722 466.343 722 468C722 469.657 723.343 471 725 471Z" fill="#4AF6CD"/>
<path fill-rule="evenodd" clip-rule="evenodd" d="M365 228C366.657 228 368 226.657 368 225C368 223.343 366.657 222 365 222C363.343 222 362 223.343 362 225C362 226.657 363.343 228 365 228Z" fill="#4AF6CD"/>
<path fill-rule="evenodd" clip-rule="evenodd" d="M729.5 91C733.09 91 736 88.0899 736 84.5C736 80.9101 733.09 78 729.5 78C725.91 78 723 80.9101 723 84.5C723 88.0899 725.91 91 729.5 91Z" fill="#4AF6CD"/>
<path d="M537.414 461.784C538.15 461.784 538.779 461.891 539.302 462.104C539.824 462.307 540.331 462.627 540.822 463.064L539.99 463.992C539.574 463.661 539.163 463.421 538.758 463.272C538.363 463.112 537.936 463.032 537.478 463.032C536.902 463.032 536.427 463.165 536.054 463.432C535.68 463.699 535.494 464.088 535.494 464.6C535.494 464.92 535.558 465.192 535.686 465.416C535.814 465.629 536.048 465.827 536.39 466.008C536.742 466.189 537.248 466.381 537.91 466.584C538.603 466.797 539.179 467.027 539.638 467.272C540.096 467.517 540.464 467.859 540.742 468.296C541.03 468.723 541.174 469.267 541.174 469.928C541.174 470.568 541.014 471.133 540.694 471.624C540.384 472.115 539.931 472.499 539.334 472.776C538.747 473.053 538.048 473.192 537.238 473.192C535.712 473.192 534.464 472.717 533.494 471.768L534.326 470.84C534.774 471.203 535.227 471.48 535.686 471.672C536.144 471.853 536.656 471.944 537.222 471.944C537.904 471.944 538.47 471.779 538.918 471.448C539.366 471.107 539.59 470.616 539.59 469.976C539.59 469.613 539.52 469.315 539.382 469.08C539.243 468.835 539.003 468.616 538.662 468.424C538.331 468.232 537.846 468.04 537.206 467.848C536.075 467.507 535.248 467.096 534.726 466.616C534.203 466.136 533.942 465.485 533.942 464.664C533.942 464.109 534.086 463.613 534.374 463.176C534.672 462.739 535.083 462.397 535.606 462.152C536.139 461.907 536.742 461.784 537.414 461.784ZM546.501 464.376C547.685 464.376 548.602 464.771 549.253 465.56C549.914 466.349 550.245 467.421 550.245 468.776C550.245 469.651 550.095 470.424 549.797 471.096C549.498 471.757 549.066 472.275 548.501 472.648C547.935 473.011 547.263 473.192 546.485 473.192C545.301 473.192 544.378 472.797 543.717 472.008C543.055 471.219 542.725 470.147 542.725 468.792C542.725 467.917 542.874 467.149 543.173 466.488C543.471 465.816 543.903 465.299 544.469 464.936C545.034 464.563 545.711 464.376 546.501 464.376ZM546.501 465.56C545.039 465.56 544.309 466.637 544.309 468.792C544.309 470.936 545.034 472.008 546.485 472.008C547.935 472.008 548.661 470.931 548.661 468.776C548.661 466.632 547.941 465.56 546.501 465.56ZM558.948 473H557.684L557.572 471.688C557.252 472.211 556.884 472.595 556.468 472.84C556.052 473.075 555.546 473.192 554.948 473.192C554.212 473.192 553.636 472.968 553.22 472.52C552.804 472.072 552.596 471.437 552.596 470.616V464.568H554.068V470.456C554.068 471.032 554.17 471.443 554.372 471.688C554.575 471.923 554.906 472.04 555.364 472.04C556.186 472.04 556.89 471.555 557.476 470.584V464.568H558.948V473ZM566.245 472.616C565.69 473 565.061 473.192 564.357 473.192C563.642 473.192 563.082 472.989 562.677 472.584C562.282 472.168 562.085 471.571 562.085 470.792V465.704H560.613V464.568H562.085V462.664L563.557 462.488V464.568H565.557L565.397 465.704H563.557V470.728C563.557 471.165 563.631 471.485 563.781 471.688C563.941 471.88 564.202 471.976 564.565 471.976C564.895 471.976 565.269 471.864 565.685 471.64L566.245 472.616ZM571.738 464.376C572.506 464.376 573.103 464.605 573.53 465.064C573.967 465.523 574.186 466.152 574.186 466.952V473H572.714V467.16C572.714 466.563 572.597 466.141 572.362 465.896C572.138 465.651 571.807 465.528 571.37 465.528C570.933 465.528 570.543 465.656 570.202 465.912C569.861 466.168 569.541 466.531 569.242 467V473H567.77V461.192L569.242 461.032V465.736C569.903 464.829 570.735 464.376 571.738 464.376ZM584.179 461.784C584.915 461.784 585.545 461.891 586.067 462.104C586.59 462.307 587.097 462.627 587.587 463.064L586.755 463.992C586.339 463.661 585.929 463.421 585.523 463.272C585.129 463.112 584.702 463.032 584.243 463.032C583.667 463.032 583.193 463.165 582.819 463.432C582.446 463.699 582.259 464.088 582.259 464.6C582.259 464.92 582.323 465.192 582.451 465.416C582.579 465.629 582.814 465.827 583.155 466.008C583.507 466.189 584.014 466.381 584.675 466.584C585.369 466.797 585.945 467.027 586.403 467.272C586.862 467.517 587.23 467.859 587.507 468.296C587.795 468.723 587.939 469.267 587.939 469.928C587.939 470.568 587.779 471.133 587.459 471.624C587.15 472.115 586.697 472.499 586.099 472.776C585.513 473.053 584.814 473.192 584.003 473.192C582.478 473.192 581.23 472.717 580.259 471.768L581.091 470.84C581.539 471.203 581.993 471.48 582.451 471.672C582.91 471.853 583.422 471.944 583.987 471.944C584.67 471.944 585.235 471.779 585.683 471.448C586.131 471.107 586.355 470.616 586.355 469.976C586.355 469.613 586.286 469.315 586.147 469.08C586.009 468.835 585.769 468.616 585.427 468.424C585.097 468.232 584.611 468.04 583.971 467.848C582.841 467.507 582.014 467.096 581.491 466.616C580.969 466.136 580.707 465.485 580.707 464.664C580.707 464.109 580.851 463.613 581.139 463.176C581.438 462.739 581.849 462.397 582.371 462.152C582.905 461.907 583.507 461.784 584.179 461.784ZM594.066 464.376C594.834 464.376 595.431 464.605 595.858 465.064C596.295 465.523 596.514 466.152 596.514 466.952V473H595.042V467.16C595.042 466.563 594.925 466.141 594.69 465.896C594.466 465.651 594.135 465.528 593.698 465.528C593.261 465.528 592.871 465.656 592.53 465.912C592.189 466.168 591.869 466.531 591.57 467V473H590.098V461.192L591.57 461.032V465.736C592.231 464.829 593.063 464.376 594.066 464.376ZM602.641 464.376C603.825 464.376 604.742 464.771 605.393 465.56C606.054 466.349 606.385 467.421 606.385 468.776C606.385 469.651 606.236 470.424 605.937 471.096C605.638 471.757 605.206 472.275 604.641 472.648C604.076 473.011 603.404 473.192 602.625 473.192C601.441 473.192 600.518 472.797 599.857 472.008C599.196 471.219 598.865 470.147 598.865 468.792C598.865 467.917 599.014 467.149 599.313 466.488C599.612 465.816 600.044 465.299 600.609 464.936C601.174 464.563 601.852 464.376 602.641 464.376ZM602.641 465.56C601.18 465.56 600.449 466.637 600.449 468.792C600.449 470.936 601.174 472.008 602.625 472.008C604.076 472.008 604.801 470.931 604.801 468.776C604.801 466.632 604.081 465.56 602.641 465.56ZM612.481 464.376C612.78 464.376 613.057 464.408 613.313 464.472L613.041 465.912C612.785 465.848 612.54 465.816 612.305 465.816C611.782 465.816 611.361 466.008 611.041 466.392C610.721 466.776 610.47 467.373 610.289 468.184V473H608.817V464.568H610.081L610.225 466.28C610.449 465.651 610.753 465.176 611.137 464.856C611.521 464.536 611.969 464.376 612.481 464.376ZM620.872 468.536C620.872 468.781 620.862 469.032 620.84 469.288H615.464C615.528 470.216 615.763 470.899 616.168 471.336C616.574 471.773 617.096 471.992 617.736 471.992C618.142 471.992 618.515 471.933 618.856 471.816C619.198 471.699 619.555 471.512 619.928 471.256L620.568 472.136C619.672 472.84 618.691 473.192 617.624 473.192C616.451 473.192 615.534 472.808 614.872 472.04C614.222 471.272 613.896 470.216 613.896 468.872C613.896 467.997 614.035 467.224 614.312 466.552C614.6 465.869 615.006 465.336 615.528 464.952C616.062 464.568 616.686 464.376 617.4 464.376C618.52 464.376 619.379 464.744 619.976 465.48C620.574 466.216 620.872 467.235 620.872 468.536ZM619.416 468.104C619.416 467.272 619.251 466.637 618.92 466.2C618.59 465.763 618.094 465.544 617.432 465.544C616.227 465.544 615.571 466.429 615.464 468.2H619.416V468.104ZM629.41 460.184V474.568H629.058V460.184H629.41ZM648.237 473H646.765L646.381 468.024C646.221 466.072 646.131 464.573 646.109 463.528L643.725 471.752H642.301L639.789 463.512C639.789 464.845 639.72 466.387 639.581 468.136L639.213 473H637.773L638.685 461.976H640.733L643.053 469.992L645.261 461.976H647.325L648.237 473ZM656.434 471.032C656.434 471.373 656.493 471.629 656.61 471.8C656.728 471.96 656.904 472.083 657.138 472.168L656.802 473.192C656.365 473.139 656.013 473.016 655.746 472.824C655.48 472.632 655.282 472.333 655.154 471.928C654.589 472.771 653.752 473.192 652.642 473.192C651.81 473.192 651.154 472.957 650.674 472.488C650.194 472.019 649.954 471.405 649.954 470.648C649.954 469.752 650.274 469.064 650.914 468.584C651.565 468.104 652.482 467.864 653.666 467.864H654.962V467.24C654.962 466.643 654.818 466.216 654.53 465.96C654.242 465.704 653.8 465.576 653.202 465.576C652.584 465.576 651.826 465.725 650.93 466.024L650.562 464.952C651.608 464.568 652.578 464.376 653.474 464.376C654.466 464.376 655.208 464.621 655.698 465.112C656.189 465.592 656.434 466.28 656.434 467.176V471.032ZM652.978 472.088C653.821 472.088 654.482 471.651 654.962 470.776V468.84H653.858C652.301 468.84 651.522 469.416 651.522 470.568C651.522 471.069 651.645 471.448 651.89 471.704C652.136 471.96 652.498 472.088 652.978 472.088ZM660.981 473.192C660.437 473.192 660.005 473.032 659.685 472.712C659.376 472.381 659.221 471.923 659.221 471.336V461.176L660.693 461V471.304C660.693 471.539 660.731 471.709 660.805 471.816C660.891 471.923 661.029 471.976 661.221 471.976C661.424 471.976 661.605 471.944 661.765 471.88L662.149 472.904C661.797 473.096 661.408 473.192 660.981 473.192ZM665.461 464.568V473H663.989V464.568H665.461ZM664.709 460.52C665.018 460.52 665.269 460.616 665.461 460.808C665.653 461 665.749 461.24 665.749 461.528C665.749 461.816 665.653 462.056 665.461 462.248C665.269 462.429 665.018 462.52 664.709 462.52C664.41 462.52 664.165 462.429 663.973 462.248C663.781 462.056 663.685 461.816 663.685 461.528C663.685 461.24 663.781 461 663.973 460.808C664.165 460.616 664.41 460.52 664.709 460.52ZM672.36 464.376C673.32 464.376 674.083 464.765 674.648 465.544C675.214 466.312 675.496 467.389 675.496 468.776C675.496 469.651 675.363 470.424 675.096 471.096C674.83 471.757 674.446 472.275 673.944 472.648C673.443 473.011 672.856 473.192 672.184 473.192C671.299 473.192 670.552 472.819 669.944 472.072L669.8 473H668.504V461.176L669.976 461V465.624C670.584 464.792 671.379 464.376 672.36 464.376ZM671.832 472.024C672.483 472.024 672.99 471.763 673.352 471.24C673.726 470.707 673.912 469.885 673.912 468.776C673.912 467.635 673.742 466.813 673.4 466.312C673.059 465.8 672.574 465.544 671.944 465.544C671.198 465.544 670.542 465.981 669.976 466.856V470.888C670.2 471.24 670.472 471.517 670.792 471.72C671.123 471.923 671.47 472.024 671.832 472.024ZM684.276 473H683.012L682.9 471.688C682.58 472.211 682.212 472.595 681.796 472.84C681.38 473.075 680.874 473.192 680.276 473.192C679.54 473.192 678.964 472.968 678.548 472.52C678.132 472.072 677.924 471.437 677.924 470.616V464.568H679.396V470.456C679.396 471.032 679.498 471.443 679.7 471.688C679.903 471.923 680.234 472.04 680.692 472.04C681.514 472.04 682.218 471.555 682.804 470.584V464.568H684.276V473ZM687.701 470.968C688.021 470.968 688.288 471.075 688.501 471.288C688.714 471.501 688.821 471.763 688.821 472.072C688.821 472.403 688.725 472.781 688.533 473.208L687.461 475.656H686.405L687.045 473C686.906 472.893 686.794 472.76 686.709 472.6C686.634 472.44 686.597 472.264 686.597 472.072C686.597 471.763 686.704 471.501 686.917 471.288C687.13 471.075 687.392 470.968 687.701 470.968ZM699.331 461.784C699.992 461.784 700.547 461.869 700.995 462.04C701.454 462.211 701.918 462.488 702.387 462.872L701.555 463.848C700.883 463.304 700.174 463.032 699.427 463.032C698.51 463.032 697.768 463.384 697.203 464.088C696.648 464.792 696.371 465.923 696.371 467.48C696.371 468.995 696.648 470.115 697.203 470.84C697.758 471.555 698.494 471.912 699.411 471.912C699.88 471.912 700.291 471.832 700.643 471.672C700.995 471.512 701.368 471.288 701.763 471L702.515 471.96C702.174 472.312 701.736 472.605 701.203 472.84C700.67 473.075 700.056 473.192 699.363 473.192C698.467 473.192 697.667 472.973 696.963 472.536C696.27 472.088 695.726 471.437 695.331 470.584C694.947 469.72 694.755 468.685 694.755 467.48C694.755 466.275 694.958 465.245 695.363 464.392C695.768 463.528 696.318 462.877 697.011 462.44C697.704 462.003 698.478 461.784 699.331 461.784ZM710.3 473L709.468 470.232H705.292L704.46 473H702.924L706.46 461.976H708.38L711.9 473H710.3ZM705.66 469H709.1L707.388 463.24L705.66 469Z" fill="white"/>
<path d="M598.378 75.784C599.039 75.784 599.594 75.8693 600.042 76.04C600.501 76.2107 600.965 76.488 601.434 76.872L600.602 77.848C599.93 77.304 599.221 77.032 598.474 77.032C597.557 77.032 596.815 77.384 596.25 78.088C595.695 78.792 595.418 79.9227 595.418 81.48C595.418 82.9947 595.695 84.1147 596.25 84.84C596.805 85.5547 597.541 85.912 598.458 85.912C598.927 85.912 599.338 85.832 599.69 85.672C600.042 85.512 600.415 85.288 600.81 85L601.562 85.96C601.221 86.312 600.783 86.6053 600.25 86.84C599.717 87.0747 599.103 87.192 598.41 87.192C597.514 87.192 596.714 86.9733 596.01 86.536C595.317 86.088 594.773 85.4373 594.378 84.584C593.994 83.72 593.802 82.6853 593.802 81.48C593.802 80.2747 594.005 79.2453 594.41 78.392C594.815 77.528 595.365 76.8773 596.058 76.44C596.751 76.0027 597.525 75.784 598.378 75.784ZM609.401 87H608.137L608.025 85.688C607.705 86.2107 607.337 86.5947 606.921 86.84C606.505 87.0747 605.999 87.192 605.401 87.192C604.665 87.192 604.089 86.968 603.673 86.52C603.257 86.072 603.049 85.4373 603.049 84.616V78.568H604.521V84.456C604.521 85.032 604.623 85.4427 604.825 85.688C605.028 85.9227 605.359 86.04 605.817 86.04C606.639 86.04 607.343 85.5547 607.929 84.584V78.568H609.401V87ZM616.106 78.376C616.405 78.376 616.682 78.408 616.938 78.472L616.666 79.912C616.41 79.848 616.165 79.816 615.93 79.816C615.407 79.816 614.986 80.008 614.666 80.392C614.346 80.776 614.095 81.3733 613.914 82.184V87H612.442V78.568H613.706L613.85 80.28C614.074 79.6507 614.378 79.176 614.762 78.856C615.146 78.536 615.594 78.376 616.106 78.376ZM622.278 78.376C622.576 78.376 622.854 78.408 623.11 78.472L622.838 79.912C622.582 79.848 622.336 79.816 622.102 79.816C621.579 79.816 621.158 80.008 620.838 80.392C620.518 80.776 620.267 81.3733 620.086 82.184V87H618.614V78.568H619.878L620.022 80.28C620.246 79.6507 620.55 79.176 620.934 78.856C621.318 78.536 621.766 78.376 622.278 78.376ZM630.669 82.536C630.669 82.7813 630.659 83.032 630.637 83.288H625.261C625.325 84.216 625.56 84.8987 625.965 85.336C626.371 85.7733 626.893 85.992 627.533 85.992C627.939 85.992 628.312 85.9333 628.653 85.816C628.995 85.6987 629.352 85.512 629.725 85.256L630.365 86.136C629.469 86.84 628.488 87.192 627.421 87.192C626.248 87.192 625.331 86.808 624.669 86.04C624.019 85.272 623.693 84.216 623.693 82.872C623.693 81.9973 623.832 81.224 624.109 80.552C624.397 79.8693 624.803 79.336 625.325 78.952C625.859 78.568 626.483 78.376 627.197 78.376C628.317 78.376 629.176 78.744 629.773 79.48C630.371 80.216 630.669 81.2347 630.669 82.536ZM629.213 82.104C629.213 81.272 629.048 80.6373 628.717 80.2C628.387 79.7627 627.891 79.544 627.229 79.544C626.024 79.544 625.368 80.4293 625.261 82.2H629.213V82.104ZM636.988 78.376C637.756 78.376 638.353 78.6053 638.78 79.064C639.217 79.5227 639.436 80.152 639.436 80.952V87H637.964V81.16C637.964 80.5627 637.852 80.1413 637.628 79.896C637.404 79.6507 637.073 79.528 636.636 79.528C636.188 79.528 635.793 79.656 635.452 79.912C635.111 80.168 634.791 80.536 634.492 81.016V87H633.02V78.568H634.284L634.412 79.816C634.711 79.368 635.079 79.016 635.516 78.76C635.964 78.504 636.455 78.376 636.988 78.376ZM646.651 86.616C646.096 87 645.467 87.192 644.763 87.192C644.048 87.192 643.488 86.9893 643.083 86.584C642.688 86.168 642.491 85.5707 642.491 84.792V79.704H641.019V78.568H642.491V76.664L643.963 76.488V78.568H645.963L645.803 79.704H643.963V84.728C643.963 85.1653 644.038 85.4853 644.187 85.688C644.347 85.88 644.608 85.976 644.971 85.976C645.302 85.976 645.675 85.864 646.091 85.64L646.651 86.616ZM654.011 75.976V85.672H658.539L658.363 87H652.491V75.976H654.011ZM663.141 78.376C664.325 78.376 665.242 78.7707 665.893 79.56C666.554 80.3493 666.885 81.4213 666.885 82.776C666.885 83.6507 666.736 84.424 666.437 85.096C666.138 85.7573 665.706 86.2747 665.141 86.648C664.576 87.0107 663.904 87.192 663.125 87.192C661.941 87.192 661.018 86.7973 660.357 86.008C659.696 85.2187 659.365 84.1467 659.365 82.792C659.365 81.9173 659.514 81.1493 659.813 80.488C660.112 79.816 660.544 79.2987 661.109 78.936C661.674 78.5627 662.352 78.376 663.141 78.376ZM663.141 79.56C661.68 79.56 660.949 80.6373 660.949 82.792C660.949 84.936 661.674 86.008 663.125 86.008C664.576 86.008 665.301 84.9307 665.301 82.776C665.301 80.632 664.581 79.56 663.141 79.56ZM672.389 78.376C672.89 78.376 673.349 78.4507 673.765 78.6C674.181 78.7387 674.581 78.968 674.965 79.288L674.261 80.216C673.962 80.0027 673.669 79.848 673.381 79.752C673.104 79.6453 672.794 79.592 672.453 79.592C671.77 79.592 671.237 79.864 670.853 80.408C670.48 80.952 670.293 81.7573 670.293 82.824C670.293 83.8907 670.48 84.68 670.853 85.192C671.226 85.6933 671.76 85.944 672.453 85.944C672.784 85.944 673.088 85.896 673.365 85.8C673.642 85.6933 673.952 85.528 674.293 85.304L674.965 86.264C674.197 86.8827 673.338 87.192 672.389 87.192C671.248 87.192 670.346 86.808 669.685 86.04C669.034 85.272 668.709 84.2107 668.709 82.856C668.709 81.96 668.858 81.176 669.157 80.504C669.456 79.832 669.877 79.3093 670.421 78.936C670.976 78.5627 671.632 78.376 672.389 78.376ZM682.481 85.032C682.481 85.3733 682.54 85.6293 682.657 85.8C682.775 85.96 682.951 86.0827 683.185 86.168L682.849 87.192C682.412 87.1387 682.06 87.016 681.793 86.824C681.527 86.632 681.329 86.3333 681.201 85.928C680.636 86.7707 679.799 87.192 678.689 87.192C677.857 87.192 677.201 86.9573 676.721 86.488C676.241 86.0187 676.001 85.4053 676.001 84.648C676.001 83.752 676.321 83.064 676.961 82.584C677.612 82.104 678.529 81.864 679.713 81.864H681.009V81.24C681.009 80.6427 680.865 80.216 680.577 79.96C680.289 79.704 679.847 79.576 679.249 79.576C678.631 79.576 677.873 79.7253 676.977 80.024L676.609 78.952C677.655 78.568 678.625 78.376 679.521 78.376C680.513 78.376 681.255 78.6213 681.745 79.112C682.236 79.592 682.481 80.28 682.481 81.176V85.032ZM679.025 86.088C679.868 86.088 680.529 85.6507 681.009 84.776V82.84H679.905C678.348 82.84 677.569 83.416 677.569 84.568C677.569 85.0693 677.692 85.448 677.937 85.704C678.183 85.96 678.545 86.088 679.025 86.088ZM689.76 86.616C689.206 87 688.576 87.192 687.872 87.192C687.158 87.192 686.598 86.9893 686.192 86.584C685.798 86.168 685.6 85.5707 685.6 84.792V79.704H684.128V78.568H685.6V76.664L687.072 76.488V78.568H689.072L688.912 79.704H687.072V84.728C687.072 85.1653 687.147 85.4853 687.296 85.688C687.456 85.88 687.718 85.976 688.08 85.976C688.411 85.976 688.784 85.864 689.2 85.64L689.76 86.616ZM692.758 78.568V87H691.286V78.568H692.758ZM692.006 74.52C692.315 74.52 692.566 74.616 692.758 74.808C692.95 75 693.046 75.24 693.046 75.528C693.046 75.816 692.95 76.056 692.758 76.248C692.566 76.4293 692.315 76.52 692.006 76.52C691.707 76.52 691.462 76.4293 691.27 76.248C691.078 76.056 690.982 75.816 690.982 75.528C690.982 75.24 691.078 75 691.27 74.808C691.462 74.616 691.707 74.52 692.006 74.52ZM698.969 78.376C700.153 78.376 701.071 78.7707 701.721 79.56C702.383 80.3493 702.713 81.4213 702.713 82.776C702.713 83.6507 702.564 84.424 702.265 85.096C701.967 85.7573 701.535 86.2747 700.969 86.648C700.404 87.0107 699.732 87.192 698.953 87.192C697.769 87.192 696.847 86.7973 696.185 86.008C695.524 85.2187 695.193 84.1467 695.193 82.792C695.193 81.9173 695.343 81.1493 695.641 80.488C695.94 79.816 696.372 79.2987 696.937 78.936C697.503 78.5627 698.18 78.376 698.969 78.376ZM698.969 79.56C697.508 79.56 696.777 80.6373 696.777 82.792C696.777 84.936 697.503 86.008 698.953 86.008C700.404 86.008 701.129 84.9307 701.129 82.776C701.129 80.632 700.409 79.56 698.969 79.56ZM709.113 78.376C709.881 78.376 710.478 78.6053 710.905 79.064C711.342 79.5227 711.561 80.152 711.561 80.952V87H710.089V81.16C710.089 80.5627 709.977 80.1413 709.753 79.896C709.529 79.6507 709.198 79.528 708.761 79.528C708.313 79.528 707.918 79.656 707.577 79.912C707.236 80.168 706.916 80.536 706.617 81.016V87H705.145V78.568H706.409L706.537 79.816C706.836 79.368 707.204 79.016 707.641 78.76C708.089 78.504 708.58 78.376 709.113 78.376Z" fill="white"/>
</svg>
